<?xml version="1.0" encoding="utf-8"?>
<!-- Generator: Adobe Illustrator 27.5.0, SVG Export Plug-In . SVG Version: 6.00 Build 0)  -->
<svg version="1.1" xmlns="http://www.w3.org/2000/svg" xmlns:xlink="http://www.w3.org/1999/xlink" x="0px" y="0px"
	 viewBox="0 0 2200 2200" style="enable-background:new 0 0 2200 2200;" xml:space="preserve">
<g id="background">
	<rect style="fill:#FFFFFF;" width="2200" height="2200"/>
</g>
<g id="Objects">
	<g>
		<g>
			<path style="fill:#DB2C2C;" d="M1847.123,1031.004c0,64.239-66.687,118.857-82.522,178.104
				c-16.385,61.302,13.577,141.856-17.476,195.529c-31.5,54.445-116.539,68.583-160.724,112.768
				c-44.185,44.185-58.323,129.224-112.768,160.724c-53.672,31.053-134.226,1.091-195.528,17.476
				c-59.247,15.835-113.865,82.522-178.104,82.522s-118.857-66.687-178.104-82.522c-61.302-16.385-141.856,13.577-195.529-17.476
				c-54.445-31.5-68.583-116.539-112.768-160.725s-129.224-58.323-160.724-112.768c-31.053-53.672-1.091-134.226-17.476-195.528
				c-15.835-59.247-82.522-113.865-82.522-178.104c0-64.239,66.687-118.857,82.522-178.103
				c16.385-61.302-13.577-141.856,17.476-195.529c31.5-54.445,116.539-68.583,160.725-112.768
				c44.185-44.185,58.323-129.224,112.768-160.724c53.672-31.053,134.226-1.091,195.528-17.476
				c59.247-15.835,113.865-82.522,178.104-82.522s118.857,66.687,178.104,82.522c61.302,16.385,141.856-13.577,195.529,17.476
				c54.445,31.5,68.583,116.539,112.768,160.725c44.185,44.185,129.224,58.323,160.724,112.768
				c31.053,53.672,1.091,134.226,17.476,195.528C1780.436,912.147,1847.123,966.765,1847.123,1031.004z"/>
			<path style="fill:#A33D3D;" d="M1100,1808.986c-46.144,0-85.864-25.957-120.908-48.859
				c-23.026-15.047-44.776-29.261-65.163-34.71c-21.774-5.82-48.567-4.422-76.933-2.938c-43.1,2.25-87.673,4.582-126.082-17.64
				c-38.997-22.563-59.318-62.662-78.971-101.442c-12.687-25.034-24.672-48.681-40.164-64.173
				c-15.493-15.493-39.139-27.477-64.174-40.164c-38.779-19.653-78.877-39.974-101.439-78.971
				c-22.222-38.407-19.893-82.978-17.641-126.081c1.483-28.366,2.882-55.158-2.938-76.932c-5.45-20.389-19.663-42.138-34.71-65.164
				c-22.902-35.043-48.858-74.763-48.858-120.908c0-46.144,25.957-85.865,48.858-120.909c15.047-23.026,29.261-44.775,34.71-65.163
				c5.82-21.774,4.42-48.567,2.938-76.933c-2.252-43.103-4.581-87.673,17.64-126.081c22.563-38.996,62.662-59.318,101.442-78.971
				c25.034-12.687,48.681-24.671,64.173-40.164c15.493-15.493,27.477-39.139,40.164-64.173
				c19.652-38.779,39.974-78.879,78.971-101.441c38.406-22.222,82.978-19.893,126.081-17.64c28.367,1.481,55.16,2.882,76.933-2.938
				c20.387-5.449,42.137-19.662,65.163-34.71c35.044-22.901,74.763-48.858,120.908-48.858c46.144,0,85.864,25.957,120.907,48.858
				c23.026,15.048,44.776,29.261,65.164,34.71c21.774,5.82,48.567,4.421,76.933,2.938c43.103-2.251,87.675-4.581,126.082,17.641
				c38.997,22.563,59.318,62.662,78.971,101.441c12.687,25.035,24.672,48.681,40.164,64.175
				c15.492,15.492,39.139,27.476,64.173,40.163c38.779,19.652,78.877,39.974,101.439,78.971
				c22.222,38.407,19.893,82.978,17.641,126.081c-1.483,28.366-2.882,55.159,2.938,76.932c5.45,20.388,19.663,42.137,34.71,65.163
				c22.902,35.044,48.859,74.764,48.859,120.909c0,46.144-25.957,85.864-48.859,120.908c-15.047,23.026-29.261,44.776-34.71,65.163
				c-5.82,21.775-4.42,48.567-2.938,76.933c2.252,43.104,4.581,87.674-17.64,126.082c-22.563,38.997-62.662,59.318-101.442,78.971
				c-25.034,12.687-48.681,24.672-64.173,40.164c-15.493,15.493-27.477,39.139-40.164,64.173
				c-19.653,38.779-39.974,78.877-78.971,101.439c-38.406,22.222-82.977,19.894-126.081,17.641
				c-28.367-1.484-55.159-2.882-76.932,2.938c-20.389,5.45-42.138,19.663-65.164,34.71
				C1185.865,1783.029,1146.145,1808.986,1100,1808.986z M873.518,1659.463c19.014,0,37.989,1.422,56.348,6.328
				c29.938,8.003,56.908,25.627,82.989,42.672c30.537,19.955,59.379,38.804,87.145,38.804c27.767,0,56.609-18.849,87.145-38.805
				c26.082-17.044,53.051-34.668,82.99-42.671c31.193-8.338,64.185-6.614,96.09-4.947c35.682,1.866,69.391,3.627,91.953-9.428
				c23.136-13.385,38.529-43.76,54.827-75.918c14.317-28.25,29.121-57.462,51.574-79.915c22.453-22.454,51.666-37.257,79.915-51.574
				c32.16-16.297,62.534-31.692,75.919-54.827c13.054-22.562,11.292-56.268,9.428-91.954c-1.667-31.905-3.391-64.897,4.947-96.091
				c8.003-29.938,25.627-56.908,42.672-82.989c19.955-30.537,38.804-59.38,38.804-87.145c0-27.766-18.849-56.609-38.805-87.146
				c-17.044-26.081-34.668-53.05-42.671-82.989c-8.338-31.193-6.614-64.185-4.947-96.09c1.865-35.685,3.626-69.391-9.428-91.953
				c-13.385-23.136-43.76-38.529-75.918-54.827c-28.25-14.317-57.462-29.121-79.915-51.574
				c-22.454-22.454-37.257-51.666-51.574-79.916c-16.297-32.158-31.692-62.533-54.827-75.919
				c-22.564-13.054-56.272-11.294-91.955-9.428c-31.903,1.668-64.894,3.391-96.088-4.946c-29.939-8.002-56.91-25.627-82.991-42.672
				c-30.536-19.955-59.378-38.804-87.144-38.804s-56.609,18.849-87.145,38.804c-26.082,17.045-53.051,34.669-82.99,42.672
				c-31.194,8.338-64.184,6.613-96.088,4.946c-35.688-1.865-69.392-3.625-91.954,9.428c-23.136,13.386-38.529,43.761-54.827,75.919
				c-14.317,28.25-29.121,57.462-51.574,79.916c-22.454,22.454-51.666,37.257-79.916,51.574
				c-32.158,16.297-62.533,31.691-75.918,54.827c-13.054,22.561-11.292,56.268-9.428,91.953c1.667,31.905,3.391,64.896-4.947,96.09
				c-8.003,29.939-25.627,56.908-42.671,82.989c-19.956,30.537-38.805,59.38-38.805,87.146c0,27.767,18.849,56.609,38.805,87.145
				c17.044,26.082,34.668,53.051,42.671,82.99c8.338,31.193,6.614,64.184,4.947,96.09c-1.865,35.684-3.626,69.391,9.428,91.953
				c13.385,23.136,43.76,38.529,75.918,54.827c28.25,14.317,57.462,29.121,79.915,51.574s37.257,51.666,51.574,79.915
				c16.297,32.16,31.692,62.534,54.827,75.919c22.563,13.054,56.271,11.292,91.954,9.428
				C846.904,1660.159,860.222,1659.463,873.518,1659.463z"/>
			<path style="fill:#FFFFFF;" d="M885.536,858.766c-8.059,0-14.946,3.221-20.661,9.657c-5.72,6.441-9.55,16.098-11.497,28.972
				l-29.971,198.14L741.8,899.213c-2.248-5.755-4.434-11.284-6.555-16.588c-2.123-5.301-4.33-9.618-6.618-12.952
				c-2.292-3.33-5.137-5.983-8.544-7.953c-3.406-1.967-7.709-2.954-12.906-2.954c-6.627,0-13.128,2.159-19.497,6.476
				c-6.373,4.317-11.308,9.884-14.806,16.701c-3.02,6.213-5.353,14.77-7.003,25.677l-38.873,256.992
				c-1.902,12.576-0.884,22.155,3.059,28.745c3.941,6.589,10.005,9.884,18.192,9.884c7.925,0,14.918-3.259,20.971-9.771
				c6.052-6.511,10.042-16.133,11.967-28.858l29.524-195.186l79.221,194.05c2.317,5.304,4.651,10.492,7.002,15.565
				c2.35,5.077,5.057,9.508,8.125,13.293c3.064,3.788,6.544,6.55,10.441,8.294c3.894,1.74,8.44,2.614,13.64,2.614
				c20.79,0,33.399-14.617,37.821-43.854l39.629-261.991c1.947-12.874,1.001-22.531-2.83-28.972
				C899.927,861.987,893.85,858.766,885.536,858.766z"/>
			<path style="fill:#FFFFFF;" d="M1125.433,1143.935H990.544l14.333-94.753h120.074c8.967,0,15.955-2.386,20.965-7.157
				c5.01-4.772,8.087-10.942,9.234-18.519c1.145-7.573-0.11-13.669-3.763-18.291c-3.657-4.619-9.901-6.931-18.737-6.931h-120.074
				l12.373-81.801h130.406c9.225,0,16.442-2.386,21.647-7.158c5.205-4.772,8.403-11.095,9.595-18.974
				c1.169-7.726-0.128-13.974-3.889-18.746c-3.762-4.772-10.257-7.158-19.482-7.158h-152.823c-8.186,0-15.124,1.402-20.81,4.203
				c-5.687,2.805-10.23,7.271-13.626,13.407c-3.398,6.135-5.83,14.052-7.296,23.745l-37.877,250.403
				c-2.2,14.542-1.033,25.073,3.507,31.584c4.537,6.515,13.109,9.771,25.714,9.771h157.305c9.095,0,16.323-2.46,21.681-7.385
				c5.356-4.921,8.633-11.322,9.825-19.201c1.237-8.18-0.08-14.731-3.947-19.655
				C1141.011,1146.399,1134.528,1143.935,1125.433,1143.935z"/>
			<path style="fill:#FFFFFF;" d="M1568.889,867.515c-4.381-5.829-10.342-8.748-17.877-8.748c-7.538,0-13.632,2.272-18.282,6.817
				c-4.653,4.545-8.224,9.696-10.719,15.451c-2.497,5.759-5.421,13.712-8.774,23.859l-66.847,194.505l-14.769-182.008
				c-1.24-14.997-2.409-25.751-3.501-32.266c-1.095-6.512-3.921-12.533-8.475-18.065c-4.558-5.528-11.708-8.294-21.455-8.294
				c-9.619,0-17.621,2.652-24.009,7.953c-6.391,5.304-11.371,11.588-14.938,18.86c-3.57,7.271-7.967,17.876-13.193,31.812
				l-69.439,182.008l-8.005-194.505c-0.461-14.997-1.916-26.433-4.361-34.311c-2.448-7.875-8.933-11.816-19.46-11.816
				c-7.669,0-14.548,2.954-20.638,8.862c-6.093,5.908-9.791,13.179-11.097,21.814c-1.031,6.817-1.104,16.74-0.214,29.767
				l13.638,224.271c0.42,6.668,0.949,13.9,1.59,21.7c0.638,7.804,1.958,14.542,3.958,20.223c1.998,5.681,5.07,10.076,9.215,13.179
				c4.141,3.103,9.788,4.659,16.936,4.659c8.835,0,16.312-2.614,22.433-7.839c6.117-5.226,10.748-11.134,13.889-17.724
				c3.14-6.589,7.675-17.457,13.606-32.607l76.994-199.731l15.985,199.731c1.407,15.604,2.665,26.625,3.771,33.061
				c1.102,6.441,3.93,12.235,8.481,17.383c4.548,5.148,11.24,7.726,20.078,7.726c9.357,0,17-2.652,22.937-7.953
				c5.934-5.301,10.507-11.475,13.717-18.519c3.209-7.044,7.583-18.139,13.124-33.289l81.486-224.271
				c4.919-13.634,7.851-23.553,8.791-29.767C1574.795,880.658,1573.269,873.348,1568.889,867.515z"/>
		</g>
		<ellipse style="fill:#D8D8D8;" cx="1100" cy="1918.86" rx="556.262" ry="28.118"/>
	</g>
</g>
</svg>
