<?xml version="1.0" encoding="UTF-8" standalone="no"?>
<!-- Generator: Adobe Illustrator 27.5.0, SVG Export Plug-In . SVG Version: 6.00 Build 0)  -->

<svg
   version="1.1"
   x="0px"
   y="0px"
   viewBox="0 0 2200 2200"
   style="enable-background:new 0 0 2200 2200;"
   xml:space="preserve"
   id="svg22"
   sodipodi:docname="new.svg"
   inkscape:version="1.2.1 (9c6d41e, 2022-07-14)"
   xmlns:inkscape="http://www.inkscape.org/namespaces/inkscape"
   xmlns:sodipodi="http://sodipodi.sourceforge.net/DTD/sodipodi-0.dtd"
   xmlns="http://www.w3.org/2000/svg"
   xmlns:svg="http://www.w3.org/2000/svg"><defs
   id="defs26" /><sodipodi:namedview
   id="namedview24"
   pagecolor="#ffffff"
   bordercolor="#999999"
   borderopacity="1"
   inkscape:showpageshadow="0"
   inkscape:pageopacity="0"
   inkscape:pagecheckerboard="0"
   inkscape:deskcolor="#d1d1d1"
   showgrid="false"
   inkscape:zoom="0.10727273"
   inkscape:cx="1095.339"
   inkscape:cy="1104.661"
   inkscape:window-width="1680"
   inkscape:window-height="997"
   inkscape:window-x="0"
   inkscape:window-y="25"
   inkscape:window-maximized="0"
   inkscape:current-layer="svg22" />

<g
   id="Objects"
   transform="translate(499.13765,31.986305)">
	<g
   id="g19"
   transform="translate(-447.45763)">
		<g
   id="g15">
			<path
   style="fill:#db2c2c"
   d="m 1847.123,1031.004 c 0,64.239 -66.687,118.857 -82.522,178.104 -16.385,61.302 13.577,141.856 -17.476,195.529 -31.5,54.445 -116.539,68.583 -160.724,112.768 -44.185,44.185 -58.323,129.224 -112.768,160.724 -53.672,31.053 -134.226,1.091 -195.528,17.476 -59.247,15.835 -113.865,82.522 -178.104,82.522 -64.239,0 -118.857,-66.687 -178.104,-82.522 -61.302,-16.385 -141.856,13.577 -195.529,-17.476 -54.445,-31.5 -68.583,-116.539 -112.768,-160.725 -44.185,-44.186 -129.224,-58.323 -160.724,-112.768 -31.053,-53.672 -1.091,-134.226 -17.476,-195.528 -15.835,-59.247 -82.522,-113.865 -82.522,-178.104 0,-64.239 66.687,-118.857 82.522,-178.103 16.385,-61.302 -13.577,-141.856 17.476,-195.529 31.5,-54.445 116.539,-68.583 160.725,-112.768 44.185,-44.185 58.323,-129.224 112.768,-160.724 53.672,-31.053 134.226,-1.091 195.528,-17.476 59.247,-15.835 113.865,-82.522 178.104,-82.522 64.239,0 118.857,66.687 178.104,82.522 61.302,16.385 141.856,-13.577 195.529,17.476 54.445,31.5 68.583,116.539 112.768,160.725 44.185,44.185 129.224,58.323 160.724,112.768 31.053,53.672 1.091,134.226 17.476,195.528 15.834,59.246 82.521,113.864 82.521,178.103 z"
   id="path5" />
			<path
   style="fill:#a33d3d"
   d="m 1100,1808.986 c -46.144,0 -85.864,-25.957 -120.908,-48.859 -23.026,-15.047 -44.776,-29.261 -65.163,-34.71 -21.774,-5.82 -48.567,-4.422 -76.933,-2.938 -43.1,2.25 -87.673,4.582 -126.082,-17.64 -38.997,-22.563 -59.318,-62.662 -78.971,-101.442 -12.687,-25.034 -24.672,-48.681 -40.164,-64.173 -15.493,-15.493 -39.139,-27.477 -64.174,-40.164 -38.779,-19.653 -78.877,-39.974 -101.439,-78.971 -22.222,-38.407 -19.893,-82.978 -17.641,-126.081 1.483,-28.366 2.882,-55.158 -2.938,-76.932 -5.45,-20.389 -19.663,-42.138 -34.71,-65.164 -22.902,-35.043 -48.858,-74.763 -48.858,-120.908 0,-46.144 25.957,-85.865 48.858,-120.909 15.047,-23.026 29.261,-44.775 34.71,-65.163 5.82,-21.774 4.42,-48.567 2.938,-76.933 -2.252,-43.103 -4.581,-87.673 17.64,-126.081 22.563,-38.996 62.662,-59.318 101.442,-78.971 25.034,-12.687 48.681,-24.671 64.173,-40.164 15.493,-15.493 27.477,-39.139 40.164,-64.173 19.652,-38.779 39.974,-78.879 78.971,-101.441 38.406,-22.222 82.978,-19.893 126.081,-17.64 28.367,1.481 55.16,2.882 76.933,-2.938 20.387,-5.449 42.137,-19.662 65.163,-34.71 35.044,-22.901 74.763,-48.858 120.908,-48.858 46.144,0 85.864,25.957 120.907,48.858 23.026,15.048 44.776,29.261 65.164,34.71 21.774,5.82 48.567,4.421 76.933,2.938 43.103,-2.251 87.675,-4.581 126.082,17.641 38.997,22.563 59.318,62.662 78.971,101.441 12.687,25.035 24.672,48.681 40.164,64.175 15.492,15.492 39.139,27.476 64.173,40.163 38.779,19.652 78.877,39.974 101.439,78.971 22.222,38.407 19.893,82.978 17.641,126.081 -1.483,28.366 -2.882,55.159 2.938,76.932 5.45,20.388 19.663,42.137 34.71,65.163 22.902,35.044 48.859,74.764 48.859,120.909 0,46.144 -25.957,85.864 -48.859,120.908 -15.047,23.026 -29.261,44.776 -34.71,65.163 -5.82,21.775 -4.42,48.567 -2.938,76.933 2.252,43.104 4.581,87.674 -17.64,126.082 -22.563,38.997 -62.662,59.318 -101.442,78.971 -25.034,12.687 -48.681,24.672 -64.173,40.164 -15.493,15.493 -27.477,39.139 -40.164,64.173 -19.653,38.779 -39.974,78.877 -78.971,101.439 -38.406,22.222 -82.977,19.894 -126.081,17.641 -28.367,-1.484 -55.159,-2.882 -76.932,2.938 -20.389,5.45 -42.138,19.663 -65.164,34.71 -35.042,22.902 -74.762,48.859 -120.907,48.859 z M 873.518,1659.463 c 19.014,0 37.989,1.422 56.348,6.328 29.938,8.003 56.908,25.627 82.989,42.672 30.537,19.955 59.379,38.804 87.145,38.804 27.767,0 56.609,-18.849 87.145,-38.805 26.082,-17.044 53.051,-34.668 82.99,-42.671 31.193,-8.338 64.185,-6.614 96.09,-4.947 35.682,1.866 69.391,3.627 91.953,-9.428 23.136,-13.385 38.529,-43.76 54.827,-75.918 14.317,-28.25 29.121,-57.462 51.574,-79.915 22.453,-22.454 51.666,-37.257 79.915,-51.574 32.16,-16.297 62.534,-31.692 75.919,-54.827 13.054,-22.562 11.292,-56.268 9.428,-91.954 -1.667,-31.905 -3.391,-64.897 4.947,-96.091 8.003,-29.938 25.627,-56.908 42.672,-82.989 19.955,-30.537 38.804,-59.38 38.804,-87.145 0,-27.766 -18.849,-56.609 -38.805,-87.146 -17.044,-26.081 -34.668,-53.05 -42.671,-82.989 -8.338,-31.193 -6.614,-64.185 -4.947,-96.09 1.865,-35.685 3.626,-69.391 -9.428,-91.953 -13.385,-23.136 -43.76,-38.529 -75.918,-54.827 -28.25,-14.317 -57.462,-29.121 -79.915,-51.574 -22.454,-22.454 -37.257,-51.666 -51.574,-79.916 -16.297,-32.158 -31.692,-62.533 -54.827,-75.919 -22.564,-13.054 -56.272,-11.294 -91.955,-9.428 -31.903,1.668 -64.894,3.391 -96.088,-4.946 -29.939,-8.002 -56.91,-25.627 -82.991,-42.672 -30.536,-19.955 -59.378,-38.804 -87.144,-38.804 -27.766,0 -56.609,18.849 -87.145,38.804 -26.082,17.045 -53.051,34.669 -82.99,42.672 -31.194,8.338 -64.184,6.613 -96.088,4.946 -35.688,-1.865 -69.392,-3.625 -91.954,9.428 -23.136,13.386 -38.529,43.761 -54.827,75.919 -14.317,28.25 -29.121,57.462 -51.574,79.916 -22.454,22.454 -51.666,37.257 -79.916,51.574 -32.158,16.297 -62.533,31.691 -75.918,54.827 -13.054,22.561 -11.292,56.268 -9.428,91.953 1.667,31.905 3.391,64.896 -4.947,96.09 -8.003,29.939 -25.627,56.908 -42.671,82.989 -19.956,30.537 -38.805,59.38 -38.805,87.146 0,27.767 18.849,56.609 38.805,87.145 17.044,26.082 34.668,53.051 42.671,82.99 8.338,31.193 6.614,64.184 4.947,96.09 -1.865,35.684 -3.626,69.391 9.428,91.953 13.385,23.136 43.76,38.529 75.918,54.827 28.25,14.317 57.462,29.121 79.915,51.574 22.453,22.453 37.257,51.666 51.574,79.915 16.297,32.16 31.692,62.534 54.827,75.919 22.563,13.054 56.271,11.292 91.954,9.428 13.127,-0.685 26.445,-1.381 39.741,-1.381 z"
   id="path7" />
			<path
   style="fill:#ffffff"
   d="m 885.536,858.766 c -8.059,0 -14.946,3.221 -20.661,9.657 -5.72,6.441 -9.55,16.098 -11.497,28.972 L 823.407,1095.535 741.8,899.213 c -2.248,-5.755 -4.434,-11.284 -6.555,-16.588 -2.123,-5.301 -4.33,-9.618 -6.618,-12.952 -2.292,-3.33 -5.137,-5.983 -8.544,-7.953 -3.406,-1.967 -7.709,-2.954 -12.906,-2.954 -6.627,0 -13.128,2.159 -19.497,6.476 -6.373,4.317 -11.308,9.884 -14.806,16.701 -3.02,6.213 -5.353,14.77 -7.003,25.677 l -38.873,256.992 c -1.902,12.576 -0.884,22.155 3.059,28.745 3.941,6.589 10.005,9.884 18.192,9.884 7.925,0 14.918,-3.259 20.971,-9.771 6.052,-6.511 10.042,-16.133 11.967,-28.858 l 29.524,-195.186 79.221,194.05 c 2.317,5.304 4.651,10.492 7.002,15.565 2.35,5.077 5.057,9.508 8.125,13.293 3.064,3.788 6.544,6.55 10.441,8.294 3.894,1.74 8.44,2.614 13.64,2.614 20.79,0 33.399,-14.617 37.821,-43.854 L 906.59,897.397 c 1.947,-12.874 1.001,-22.531 -2.83,-28.972 -3.833,-6.438 -9.91,-9.659 -18.224,-9.659 z"
   id="path9" />
			<path
   style="fill:#ffffff"
   d="M 1125.433,1143.935 H 990.544 l 14.333,-94.753 h 120.074 c 8.967,0 15.955,-2.386 20.965,-7.157 5.01,-4.772 8.087,-10.942 9.234,-18.519 1.145,-7.573 -0.11,-13.669 -3.763,-18.291 -3.657,-4.619 -9.901,-6.931 -18.737,-6.931 h -120.074 l 12.373,-81.801 h 130.406 c 9.225,0 16.442,-2.386 21.647,-7.158 5.205,-4.772 8.403,-11.095 9.595,-18.974 1.169,-7.726 -0.128,-13.974 -3.889,-18.746 -3.762,-4.772 -10.257,-7.158 -19.482,-7.158 h -152.823 c -8.186,0 -15.124,1.402 -20.81,4.203 -5.687,2.805 -10.23,7.271 -13.626,13.407 -3.398,6.135 -5.83,14.052 -7.296,23.745 l -37.877,250.403 c -2.2,14.542 -1.033,25.073 3.507,31.584 4.537,6.515 13.109,9.771 25.714,9.771 h 157.305 c 9.095,0 16.323,-2.46 21.681,-7.385 5.356,-4.921 8.633,-11.322 9.825,-19.201 1.237,-8.18 -0.08,-14.731 -3.947,-19.655 -3.868,-4.92 -10.351,-7.384 -19.446,-7.384 z"
   id="path11" />
			<path
   style="fill:#ffffff"
   d="m 1568.889,867.515 c -4.381,-5.829 -10.342,-8.748 -17.877,-8.748 -7.538,0 -13.632,2.272 -18.282,6.817 -4.653,4.545 -8.224,9.696 -10.719,15.451 -2.497,5.759 -5.421,13.712 -8.774,23.859 l -66.847,194.505 -14.769,-182.008 c -1.24,-14.997 -2.409,-25.751 -3.501,-32.266 -1.095,-6.512 -3.921,-12.533 -8.475,-18.065 -4.558,-5.528 -11.708,-8.294 -21.455,-8.294 -9.619,0 -17.621,2.652 -24.009,7.953 -6.391,5.304 -11.371,11.588 -14.938,18.86 -3.57,7.271 -7.967,17.876 -13.193,31.812 l -69.439,182.008 -8.005,-194.505 c -0.461,-14.997 -1.916,-26.433 -4.361,-34.311 -2.448,-7.875 -8.933,-11.816 -19.46,-11.816 -7.669,0 -14.548,2.954 -20.638,8.862 -6.093,5.908 -9.791,13.179 -11.097,21.814 -1.031,6.817 -1.104,16.74 -0.214,29.767 l 13.638,224.271 c 0.42,6.668 0.949,13.9 1.59,21.7 0.638,7.804 1.958,14.542 3.958,20.223 1.998,5.681 5.07,10.076 9.215,13.179 4.141,3.103 9.788,4.659 16.936,4.659 8.835,0 16.312,-2.614 22.433,-7.839 6.117,-5.226 10.748,-11.134 13.889,-17.724 3.14,-6.589 7.675,-17.457 13.606,-32.607 l 76.994,-199.731 15.985,199.731 c 1.407,15.604 2.665,26.625 3.771,33.061 1.102,6.441 3.93,12.235 8.481,17.383 4.548,5.148 11.24,7.726 20.078,7.726 9.357,0 17,-2.652 22.937,-7.953 5.934,-5.301 10.507,-11.475 13.717,-18.519 3.209,-7.044 7.583,-18.139 13.124,-33.289 l 81.486,-224.271 c 4.919,-13.634 7.851,-23.553 8.791,-29.767 1.33,-8.785 -0.196,-16.095 -4.576,-21.928 z"
   id="path13" />
		</g>
		
	</g>
</g>
</svg>
