<svg width="17" height="30" viewBox="0 0 17 30" fill="none" xmlns="http://www.w3.org/2000/svg">
<path d="M15.8688 28.0732L13.9402 21.9408L11.0784 22.8408L9.16013 20.0746L7.4026 17.8194L6.43828 14.7532L5.95094 11.5369L6.25681 7.50967L8.3254 7.42069L9.02549 6.31352L7.18999 0.477194L5.59836 0.41617L2.89727 1.82723L1.63228 4.4714L1.01016 9.15972L1.18125 13.037L1.6686 16.2532L2.63292 19.3194L3.91348 21.7246L5.35476 24.6408L7.58926 26.746L9.18607 28.4902L10.9384 29.0622L13.1677 29.4843L15.0756 28.8843L15.8688 28.0732Z" fill="#D9D9D9"/>
<path d="M10.9384 29.0622L9.18607 28.4902L7.58926 26.746L5.35476 24.6408L3.91348 21.7246L2.63292 19.3194L1.6686 16.2532L1.18125 13.037L1.01016 9.15972L1.63228 4.4714L2.89727 1.82723L5.59836 0.41617L7.18999 0.477194L9.02549 6.31352L8.3254 7.42069L6.25681 7.50967L5.95094 11.5369L6.43828 14.7532L7.4026 17.8194L9.16013 20.0746L11.0784 22.8408L13.9402 21.9408L15.8688 28.0732L15.0756 28.8843L13.1677 29.4843M10.9384 29.0622C10.9384 29.0622 12.2971 29.3194 13.1677 29.4843M10.9384 29.0622L13.1677 29.4843" stroke="black" stroke-width="0.5"/>
</svg>
